<svg width="360" height="360" viewBox="0 0 360 360" fill="none" xmlns="http://www.w3.org/2000/svg">
<g clip-path="url(#clip0_4_35)">
<path d="M336.05 360C349.216 360 360 349.398 360 336.416V95.8509C360 82.8689 349.216 72.2668 336.05 72.2668H102.29L196.105 360H336.05Z" fill="#DBDBDB"/>
<path d="M336.05 83.0852C339.549 83.0852 342.867 84.4556 345.356 86.9077C347.809 89.3238 349.179 92.4972 349.179 95.8509V336.416C349.179 339.77 347.845 342.943 345.356 345.359C342.867 347.811 339.549 349.182 336.05 349.182H203.968L117.187 83.0852H336.05ZM336.05 72.2668H102.29L196.105 360H336.05C349.216 360 360 349.398 360 336.416V95.8509C360 82.8689 349.216 72.2668 336.05 72.2668Z" fill="#DCDCDC"/>
<path d="M173.959 292.024L196.105 360L257.674 292.024H173.959Z" fill="#545454"/>
<path d="M337.637 171.688V157.588H269.648V134.797H247.574V157.588H204.184V171.688H290.532C285.915 187.952 275.708 203.314 265.753 215.25C248.115 194.37 248.043 187.591 248.043 187.591H229.72C229.72 187.591 230.478 197.76 255.221 226.753C247.178 234.975 241.082 239.844 241.082 239.844L246.709 257.442C246.709 257.442 255.221 250.121 265.861 238.834C276.537 250.41 290.316 264.329 308.133 280.918L319.711 269.342C300.631 252.032 286.637 238.293 276.357 227.258C290.135 210.959 304.13 190.44 307.087 171.652H337.601V171.688H337.637Z" fill="#607988"/>
<path d="M23.9495 0C10.7845 0 0 10.7823 0 23.9808V268.116C0 281.278 10.7845 292.061 23.9495 292.061H257.71L163.895 0H23.9495Z" fill="black"/>
<path d="M192.714 72.2668H336.05C349.216 72.2668 360 82.8689 360 95.8509V240.168L192.714 72.2668Z" fill="url(#paint0_linear_4_35)"/>
<path d="M160.684 118.443L140.789 199.518H113.074L101.919 149.838L90.534 199.518H62.819L43.154 118.443H67.534L76.964 173.873L89.729 118.443H114.454L126.874 173.413L136.304 118.443H160.684Z" fill="#EEEEEE"/>
<path d="M336.051 72.2669H187.124L163.895 0H23.9495C10.7845 0 0 10.7823 0 23.9808V268.116C0 281.278 10.7845 292.061 23.9495 292.061H173.959L196.105 360H336.051C349.216 360 360 349.398 360 336.416V95.8509C360 82.8689 349.216 72.2669 336.051 72.2669Z" fill="url(#paint1_radial_4_35)"/>
</g>
<defs>
<linearGradient id="paint0_linear_4_35" x1="192.714" y1="156.218" x2="360" y2="156.218" gradientUnits="userSpaceOnUse">
<stop stop-color="white" stop-opacity="0.2"/>
<stop offset="1" stop-color="white" stop-opacity="0.02"/>
</linearGradient>
<radialGradient id="paint1_radial_4_35" cx="0" cy="0" r="1" gradientUnits="userSpaceOnUse" gradientTransform="translate(23.5196 6.98364) scale(504.336 504.235)">
<stop stop-color="white" stop-opacity="0.1"/>
<stop offset="1" stop-color="white" stop-opacity="0"/>
</radialGradient>
<clipPath id="clip0_4_35">
<rect width="360" height="360" fill="white"/>
</clipPath>
</defs>
</svg>
